<svg xmlns="http://www.w3.org/2000/svg" version="1.1" width="512" height="512" x="0" y="0" viewBox="0 0 512.001 512.001" style="enable-background:new 0 0 512 512" xml:space="preserve" class=""><g><path d="M338.48 358.084H66.065a7.5 7.5 0 0 0 0 15h272.414a7.5 7.5 0 0 0 .001-15zM293.858 224.544c22.87 0 41.475-18.411 41.475-41.041s-18.605-41.041-41.475-41.041-41.475 18.411-41.475 41.041 18.605 41.041 41.475 41.041zm0-67.082c14.599 0 26.475 11.682 26.475 26.041s-11.876 26.041-26.475 26.041-26.475-11.682-26.475-26.041c0-14.357 11.876-26.041 26.475-26.041z" fill="#000000" opacity="1" data-original="#000000" class=""></path><path d="M512.001 336.758c0-14.662-12.074-26.591-26.914-26.591h-.038a26.15 26.15 0 0 0 2.684-11.562v-9.792c0-7.477-3.148-14.238-8.198-19.07 5.05-4.836 8.198-11.601 8.198-19.082v-9.734c0-4.153-.97-8.086-2.696-11.591h.079c14.824 0 26.884-11.916 26.884-26.562v-9.792c0-7.477-3.148-14.238-8.198-19.07 5.05-4.837 8.198-11.601 8.198-19.083v-9.734c0-12.881-9.321-23.65-21.647-26.075.386-1.672.607-3.392.607-5.15 0-6.127-2.412-11.882-6.791-16.205C479.817 93.367 474.036 91 467.892 91H71.603c-6.144 0-11.924 2.367-16.278 6.665-4.378 4.323-6.79 10.078-6.79 16.205 0 1.727.212 3.418.585 5.062C21.48 122.271 0 145.531 0 173.66v.522c0 26.187 18.619 48.154 43.491 53.757-11.767 10.119-19.224 24.989-19.224 41.552v.523c0 16.563 7.457 31.433 19.224 41.552C18.619 317.169 0 339.136 0 365.323v.522C0 396.258 25.104 421 55.961 421h429.155c14.824 0 26.884-11.916 26.885-26.564v-9.792c0-7.477-3.148-14.238-8.198-19.07 5.05-4.836 8.198-11.601 8.198-19.082v-9.734zM497 202.774c0 6.375-5.331 11.562-11.884 11.562h-86.298l33.341-32.916h52.957c6.553 0 11.884 5.187 11.884 11.562v9.792zm-63.685 74.479h27.533c6.553 0 11.884 5.187 11.884 11.562v9.792c0 6.375-5.331 11.562-11.884 11.562H301.747l33.341-32.916h68.781a7.5 7.5 0 0 0 0-15h-53.587l33.341-32.916h77.195c6.57 0 11.914 5.2 11.914 11.591v9.734c0 6.391-5.345 11.591-11.914 11.591h-27.503a7.5 7.5 0 0 0 0 15zm51.771-143.749c6.569 0 11.914 5.2 11.915 11.591v9.734c0 6.391-5.345 11.591-11.914 11.591h-37.733l33.341-32.916h4.391zM355.364 106h51.714c.411 1.835.618 3.716.618 5.629 0 14.36-11.876 26.042-26.475 26.042s-26.475-11.683-26.475-26.042c0-1.913.207-3.793.618-5.629zm-174.726 0h51.714c.411 1.835.618 3.716.618 5.629 0 14.36-11.876 26.042-26.475 26.042s-26.475-11.683-26.475-26.042c0-1.913.207-3.793.618-5.629zm-114.774 2.337a8.226 8.226 0 0 1 5.739-2.338h93.81a41.115 41.115 0 0 0-.396 5.629c0 22.631 18.605 41.042 41.475 41.042s41.475-18.412 41.475-41.042c0-1.898-.139-3.775-.396-5.629h92.57a41.115 41.115 0 0 0-.396 5.629c0 22.631 18.605 41.042 41.475 41.042s41.475-18.412 41.475-41.042c0-1.898-.139-3.775-.396-5.629h45.593c2.142 0 4.234.853 5.739 2.339a7.721 7.721 0 0 1 2.329 5.53 7.721 7.721 0 0 1-2.329 5.53L271.342 319.106c-.865.853-2.325.854-3.19 0l-33.791-33.36c8.55-7.683 13.608-18.647 13.608-30.369 0-22.63-18.606-41.041-41.475-41.041a41.657 41.657 0 0 0-30.754 13.537l-16.597-16.386c7.095-7.524 11.17-17.487 11.17-27.984 0-22.63-18.606-41.041-41.475-41.041a41.706 41.706 0 0 0-28.35 11.119l-34.624-34.182a7.721 7.721 0 0 1-2.329-5.53c0-2.084.827-4.048 2.329-5.532zm167.105 147.041c0 7.709-3.464 14.92-9.297 19.816l-36.264-35.801-.997-.984c4.975-5.695 12.273-9.072 20.083-9.072 14.599 0 26.475 11.682 26.475 26.041zm-77.657-71.874c0 6.512-2.483 12.714-6.836 17.454l-37.312-36.835a26.716 26.716 0 0 1 17.673-6.66c14.599.001 26.475 11.683 26.475 26.041zM15 174.181v-.522c0-22.141 18.375-40.155 40.961-40.155H58.8l33.341 32.916H56.358a7.5 7.5 0 0 0 0 15h50.978l33.341 32.916H55.961C33.375 214.336 15 196.323 15 174.181zm24.268 95.833v-.523c0-22.141 18.375-40.154 40.961-40.154h75.642l23.173 22.877 10.168 10.038H85.804a7.5 7.5 0 0 0 0 15h118.601l13.083 12.917.003.002 20.256 19.997H80.229c-22.586 0-40.961-18.013-40.961-40.154zM497 346.493c0 6.391-5.345 11.591-11.914 11.591H369.3a7.5 7.5 0 0 0 0 15h115.815c6.553 0 11.884 5.187 11.884 11.562v9.792c0 6.375-5.331 11.562-11.884 11.562H55.961C33.375 406 15 387.987 15 365.845v-.522c0-22.142 18.375-40.155 40.961-40.155h196.981l4.673 4.614c3.345 3.303 7.738 4.954 12.133 4.954 4.393-.001 8.788-1.652 12.133-4.954l4.673-4.614h198.532c6.569 0 11.914 5.2 11.914 11.591v9.734z" fill="#000000" opacity="1" data-original="#000000" class=""></path></g></svg>